<svg xmlns="http://www.w3.org/2000/svg" width="1208" height="710" viewBox="0 0 1208 710" role="img" aria-label="prs: filter with suggestions">
<title>prs: filter with suggestions</title>
<rect width="1208" height="710" rx="10" fill="#1a1b26"/>
<circle cx="22" cy="17" r="6" fill="#ff5f57"/><circle cx="42" cy="17" r="6" fill="#febc2e"/><circle cx="62" cy="17" r="6" fill="#28c840"/>
<g shape-rendering="crispEdges"><rect x="24.4" y="136" width="630.0" height="18" fill="#283457"/><rect x="24.4" y="154" width="630.0" height="18" fill="#283457"/><rect x="679.6" y="172" width="109.2" height="18" fill="#a2eeef"/><rect x="16.0" y="550" width="604.8" height="18" fill="#24283b"/><rect x="16.0" y="568" width="604.8" height="18" fill="#24283b"/><rect x="16.0" y="586" width="604.8" height="18" fill="#24283b"/><rect x="16.0" y="604" width="604.8" height="18" fill="#24283b"/><rect x="16.0" y="622" width="604.8" height="18" fill="#24283b"/><rect x="16.0" y="640" width="604.8" height="18" fill="#24283b"/><rect x="16.0" y="658" width="604.8" height="18" fill="#24283b"/></g>
<g font-family="ui-monospace, SFMono-Regular, Menlo, Consolas, 'DejaVu Sans Mono', monospace" font-size="14" style="white-space:pre" xml:space="preserve"><text x="24.4" y="59" fill="#c0caf5" font-weight="bold" textLength="33.6" lengthAdjust="spacing">HOME</text><text x="1133.2" y="59" fill="#787c99" textLength="50.4" lengthAdjust="spacing">@alice</text><text x="16.0" y="77" fill="#3b4261" textLength="1176.0" lengthAdjust="spacing">─────────┬──────────────────┬──────────┬────────────────────────────────────────────────────────────────────────────────────────────────────</text><text x="24.4" y="95" fill="#787c99" textLength="42.0" lengthAdjust="spacing">REPOS</text><text x="74.8" y="95" fill="#3b4261">4</text><text x="91.6" y="95" fill="#3b4261">│</text><text x="108.4" y="95" fill="#7aa2f7" font-weight="bold" textLength="109.2" lengthAdjust="spacing">PULL REQUESTS</text><text x="226.0" y="95" fill="#576da5" textLength="16.8" lengthAdjust="spacing">10</text><text x="251.2" y="95" fill="#3b4261">│</text><text x="268.0" y="95" fill="#787c99" textLength="50.4" lengthAdjust="spacing">ISSUES</text><text x="326.8" y="95" fill="#3b4261">0</text><text x="343.6" y="95" fill="#3b4261">│</text><text x="16.0" y="113" fill="#3b4261" textLength="1176.0" lengthAdjust="spacing">─────────┴──────────────────┴──────────┴─────────────────────────────────────┬──────────────────────────────────────────────────────────────</text><text x="24.4" y="131" fill="#7aa2f7">▾</text><text x="41.2" y="131" fill="#7aa2f7" font-weight="bold" textLength="126.0" lengthAdjust="spacing">Needs my review</text><text x="175.6" y="131" fill="#ff9e64">4</text><text x="200.8" y="131" fill="#787c99" textLength="453.6" lengthAdjust="spacing">· review requested from you · not me · ready · not bo…</text><text x="662.8" y="131" fill="#3b4261">│</text><text x="679.6" y="131" fill="#c0caf5" font-weight="bold" textLength="369.6" lengthAdjust="spacing">Retry failed webhook deliveries with backoff</text><text x="24.4" y="149" fill="#7dcfff">◐</text><text x="49.6" y="149" fill="#7aa2f7" textLength="33.6" lengthAdjust="spacing">#482</text><text x="91.6" y="149" fill="#ffffff" textLength="369.6" lengthAdjust="spacing">Retry failed webhook deliveries with backoff</text><text x="604.0" y="149" fill="#787c99" textLength="16.8" lengthAdjust="spacing">0d</text><text x="629.2" y="149" fill="#9ece6a">✓</text><text x="646.0" y="149" fill="#e0af68">●</text><text x="662.8" y="149" fill="#3b4261">│</text><text x="679.6" y="149" fill="#ff9e64" textLength="33.6" lengthAdjust="spacing">#482</text><text x="721.6" y="149" fill="#787c99" textLength="16.8" lengthAdjust="spacing">by</text><text x="746.8" y="149" fill="#ff9e64" textLength="42.0" lengthAdjust="spacing">devon</text><text x="797.2" y="149" fill="#787c99" textLength="75.6" lengthAdjust="spacing">yesterday</text><text x="1099.6" y="149" fill="#787c99" textLength="84.0" lengthAdjust="spacing">5 comments</text><text x="41.2" y="167" fill="#787c99" textLength="159.6" lengthAdjust="spacing">@devon · my-org/api</text><text x="209.2" y="167" fill="#3b4261" textLength="176.4" lengthAdjust="spacing">devon/webhook-retries</text><text x="662.8" y="167" fill="#3b4261">│</text><text x="679.6" y="167" fill="#787c99" textLength="176.4" lengthAdjust="spacing">devon/webhook-retries</text><text x="1066.0" y="167" fill="#787c99" textLength="58.8" lengthAdjust="spacing">3 files</text><text x="1133.2" y="167" fill="#9ece6a" textLength="25.2" lengthAdjust="spacing">+35</text><text x="1166.8" y="167" fill="#f7768e" textLength="16.8" lengthAdjust="spacing">-2</text><text x="24.4" y="185" fill="#7dcfff">◐</text><text x="41.2" y="185" fill="#ff9e64" textLength="42.0" lengthAdjust="spacing">#1291</text><text x="91.6" y="185" fill="#c0caf5" textLength="235.2" lengthAdjust="spacing">Virtualize the invoice table</text><text x="604.0" y="185" fill="#787c99" textLength="16.8" lengthAdjust="spacing">1d</text><text x="629.2" y="185" fill="#e0af68">◐</text><text x="646.0" y="185" fill="#9ece6a">●</text><text x="662.8" y="185" fill="#3b4261">│</text><text x="688.0" y="185" fill="#111111" textLength="92.4" lengthAdjust="spacing">enhancement</text><text x="41.2" y="203" fill="#787c99" textLength="151.2" lengthAdjust="spacing">@nina · my-org/web</text><text x="200.8" y="203" fill="#3b4261" textLength="176.4" lengthAdjust="spacing">nina/virtual-invoices</text><text x="662.8" y="203" fill="#3b4261">│</text><text x="679.6" y="203" fill="#787c99" textLength="92.4" lengthAdjust="spacing">Reviewers ·</text><text x="780.4" y="203" fill="#e0af68" textLength="109.2" lengthAdjust="spacing">0/1 approvals</text><text x="906.4" y="203" fill="#e0af68">◐</text><text x="923.2" y="203" fill="#ff9e64" textLength="92.4" lengthAdjust="spacing">alice (you)</text><text x="1032.4" y="203" fill="#c0caf5" textLength="50.4" lengthAdjust="spacing">◇ mira</text><text x="1099.6" y="203" fill="#c0caf5" textLength="50.4" lengthAdjust="spacing">◇ tess</text><text x="24.4" y="221" fill="#7dcfff">◐</text><text x="58.0" y="221" fill="#ff9e64" textLength="25.2" lengthAdjust="spacing">#77</text><text x="91.6" y="221" fill="#c0caf5" textLength="226.8" lengthAdjust="spacing">Move staging to the new VPC</text><text x="604.0" y="221" fill="#787c99" textLength="16.8" lengthAdjust="spacing">2d</text><text x="629.2" y="221" fill="#f7768e" textLength="25.2" lengthAdjust="spacing">× ●</text><text x="662.8" y="221" fill="#3b4261">│</text><text x="772.0" y="221" fill="#e0af68">◐</text><text x="788.8" y="221" fill="#c0caf5" textLength="184.8" lengthAdjust="spacing">my-org/backend (owner)</text><text x="41.2" y="239" fill="#787c99" textLength="176.4" lengthAdjust="spacing">@oscar · my-org/infra</text><text x="226.0" y="239" fill="#3b4261" textLength="142.8" lengthAdjust="spacing">oscar/staging-vpc</text><text x="662.8" y="239" fill="#3b4261" textLength="529.2" lengthAdjust="spacing">├──────────────────────────────────────────────────────────────</text><text x="24.4" y="257" fill="#7dcfff">◐</text><text x="49.6" y="257" fill="#ff9e64" textLength="33.6" lengthAdjust="spacing">#503</text><text x="91.6" y="257" fill="#c0caf5" textLength="336.0" lengthAdjust="spacing">Round tax per line item, not per invoice</text><text x="604.0" y="257" fill="#787c99" textLength="16.8" lengthAdjust="spacing">3d</text><text x="629.2" y="257" fill="#9ece6a">✓</text><text x="646.0" y="257" fill="#f7768e">●</text><text x="662.8" y="257" fill="#3b4261">│</text><text x="679.6" y="257" fill="#ff9e64" font-weight="bold" textLength="50.4" lengthAdjust="spacing">Checks</text><text x="41.2" y="275" fill="#787c99" textLength="184.8" lengthAdjust="spacing">@tess · my-org/billing</text><text x="234.4" y="275" fill="#3b4261" textLength="151.2" lengthAdjust="spacing">tess/line-item-tax</text><text x="662.8" y="275" fill="#3b4261">│</text><text x="679.6" y="275" fill="#7dd3a3">✓</text><text x="696.4" y="275" fill="#c0caf5" textLength="42.0" lengthAdjust="spacing">build</text><text x="931.6" y="275" fill="#7dd3a3">✓</text><text x="948.4" y="275" fill="#c0caf5" textLength="33.6" lengthAdjust="spacing">test</text><text x="24.4" y="293" fill="#7aa2f7">▾</text><text x="41.2" y="293" fill="#7aa2f7" font-weight="bold" textLength="226.8" lengthAdjust="spacing">New commits since my review</text><text x="276.4" y="293" fill="#ff9e64">2</text><text x="662.8" y="293" fill="#3b4261">│</text><text x="679.6" y="293" fill="#7dd3a3">✓</text><text x="696.4" y="293" fill="#c0caf5" textLength="33.6" lengthAdjust="spacing">lint</text><text x="931.6" y="293" fill="#7dd3a3">✓</text><text x="948.4" y="293" fill="#c0caf5" textLength="75.6" lengthAdjust="spacing">typecheck</text><text x="24.4" y="311" fill="#9ece6a">✓</text><text x="41.2" y="311" fill="#ff9e64" textLength="42.0" lengthAdjust="spacing">#1287</text><text x="91.6" y="311" fill="#c0caf5" textLength="218.4" lengthAdjust="spacing">Add dark mode color tokens</text><text x="604.0" y="311" fill="#787c99" textLength="16.8" lengthAdjust="spacing">0d</text><text x="629.2" y="311" fill="#9ece6a" textLength="25.2" lengthAdjust="spacing">✓ ●</text><text x="662.8" y="311" fill="#3b4261">│</text><text x="679.6" y="311" fill="#7dd3a3">✓</text><text x="696.4" y="311" fill="#c0caf5" textLength="25.2" lengthAdjust="spacing">e2e</text><text x="931.6" y="311" fill="#7dd3a3">✓</text><text x="948.4" y="311" fill="#c0caf5" textLength="67.2" lengthAdjust="spacing">coverage</text><text x="41.2" y="329" fill="#787c99" textLength="142.8" lengthAdjust="spacing">@kai · my-org/web</text><text x="192.4" y="329" fill="#3b4261" textLength="126.0" lengthAdjust="spacing">kai/dark-tokens</text><text x="662.8" y="329" fill="#3b4261">│</text><text x="679.6" y="329" fill="#7dd3a3">✓</text><text x="696.4" y="329" fill="#c0caf5" textLength="67.2" lengthAdjust="spacing">security</text><text x="931.6" y="329" fill="#7dd3a3">✓</text><text x="948.4" y="329" fill="#c0caf5" textLength="58.8" lengthAdjust="spacing">preview</text><text x="24.4" y="347" fill="#f7768e">!</text><text x="49.6" y="347" fill="#ff9e64" textLength="33.6" lengthAdjust="spacing">#489</text><text x="91.6" y="347" fill="#c0caf5" textLength="260.4" lengthAdjust="spacing">Rate limit requests per API key</text><text x="604.0" y="347" fill="#787c99" textLength="16.8" lengthAdjust="spacing">1d</text><text x="629.2" y="347" fill="#9ece6a">✓</text><text x="662.8" y="347" fill="#3b4261">│</text><text x="679.6" y="347" fill="#7dd3a3">✓</text><text x="696.4" y="347" fill="#c0caf5" textLength="33.6" lengthAdjust="spacing">size</text><text x="41.2" y="365" fill="#787c99" textLength="151.2" lengthAdjust="spacing">@mira · my-org/api</text><text x="200.8" y="365" fill="#3b4261" textLength="159.6" lengthAdjust="spacing">mira/per-key-limits</text><text x="662.8" y="365" fill="#3b4261" textLength="529.2" lengthAdjust="spacing">├──────────────────────────────────────────────────────────────</text><text x="24.4" y="383" fill="#7aa2f7">▾</text><text x="41.2" y="383" fill="#7aa2f7" font-weight="bold" textLength="117.6" lengthAdjust="spacing">My team's work</text><text x="167.2" y="383" fill="#ff9e64">2</text><text x="662.8" y="383" fill="#3b4261">│</text><text x="679.6" y="383" fill="#ff9e64" font-weight="bold" textLength="84.0" lengthAdjust="spacing">Risk brief</text><text x="772.0" y="383" fill="#787c99">·</text><text x="788.8" y="383" fill="#e0af68" font-weight="bold" textLength="50.4" lengthAdjust="spacing">MEDIUM</text><text x="847.6" y="383" fill="#787c99" textLength="184.8" lengthAdjust="spacing">· $0.21 · v full brief</text><text x="24.4" y="401" fill="#787c99">⌥</text><text x="58.0" y="401" fill="#ff9e64" textLength="25.2" lengthAdjust="spacing">#88</text><text x="91.6" y="401" fill="#c0caf5" textLength="260.4" lengthAdjust="spacing">Pin Terraform provider versions</text><text x="604.0" y="401" fill="#787c99" textLength="16.8" lengthAdjust="spacing">2d</text><text x="629.2" y="401" fill="#9ece6a">✓</text><text x="662.8" y="401" fill="#3b4261">│</text><text x="679.6" y="401" fill="#c0caf5" textLength="504.0" lengthAdjust="spacing">Retries failed webhook deliveries up to 5 times with backoff</text><text x="41.2" y="419" fill="#787c99" textLength="184.8" lengthAdjust="spacing">@buster · my-org/infra</text><text x="234.4" y="419" fill="#3b4261" textLength="168.0" lengthAdjust="spacing">buster/pin-providers</text><text x="662.8" y="419" fill="#3b4261">│</text><text x="679.6" y="419" fill="#c0caf5" textLength="420.0" lengthAdjust="spacing">and jitter, and logs every attempt to a new table.</text><text x="24.4" y="437" fill="#e0af68">◌</text><text x="41.2" y="437" fill="#ff9e64" textLength="42.0" lengthAdjust="spacing">#1302</text><text x="91.6" y="437" fill="#c0caf5" textLength="201.6" lengthAdjust="spacing">New onboarding checklist</text><text x="604.0" y="437" fill="#787c99" textLength="16.8" lengthAdjust="spacing">4d</text><text x="629.2" y="437" fill="#e0af68">◐</text><text x="662.8" y="437" fill="#3b4261">│</text><text x="679.6" y="437" fill="#c0caf5" textLength="504.0" lengthAdjust="spacing">src/webhooks/deliver.ts:30-31 — Double delivery: 409 is ret…</text><text x="41.2" y="455" fill="#787c99" textLength="142.8" lengthAdjust="spacing">@kai · my-org/web</text><text x="192.4" y="455" fill="#3b4261" textLength="117.6" lengthAdjust="spacing">kai/onboarding</text><text x="662.8" y="455" fill="#3b4261">│</text><text x="679.6" y="455" fill="#c0caf5" textLength="504.0" lengthAdjust="spacing">src/webhooks/backoff.ts:1-7 — Unit mix-up: CAP_SECONDS is c…</text><text x="24.4" y="473" fill="#7aa2f7">▾</text><text x="41.2" y="473" fill="#7aa2f7" font-weight="bold" textLength="50.4" lengthAdjust="spacing">My PRs</text><text x="100.0" y="473" fill="#ff9e64">2</text><text x="662.8" y="473" fill="#3b4261">│</text><text x="679.6" y="473" fill="#c0caf5" textLength="504.0" lengthAdjust="spacing">migrations/0042_delivery_attempts.sql — New table on a hot …</text><text x="24.4" y="491" fill="#7aa2f7">↻</text><text x="49.6" y="491" fill="#ff9e64" textLength="33.6" lengthAdjust="spacing">#495</text><text x="91.6" y="491" fill="#c0caf5" textLength="285.6" lengthAdjust="spacing">Add request IDs to structured logs</text><text x="604.0" y="491" fill="#787c99" textLength="16.8" lengthAdjust="spacing">0d</text><text x="629.2" y="491" fill="#9ece6a">✓</text><text x="662.8" y="491" fill="#3b4261" textLength="529.2" lengthAdjust="spacing">├──────────────────────────────────────────────────────────────</text><text x="41.2" y="509" fill="#787c99" textLength="159.6" lengthAdjust="spacing">@alice · my-org/api</text><text x="209.2" y="509" fill="#3b4261" textLength="142.8" lengthAdjust="spacing">alice/request-ids</text><text x="662.8" y="509" fill="#3b4261">│</text><text x="679.6" y="509" fill="#7aa2f7" font-weight="bold" textLength="58.8" lengthAdjust="spacing">Summary</text><text x="24.4" y="527" fill="#7dcfff">◐</text><text x="41.2" y="527" fill="#ff9e64" textLength="42.0" lengthAdjust="spacing">#1296</text><text x="91.6" y="527" fill="#c0caf5" textLength="302.4" lengthAdjust="spacing">Fix focus trap in the settings modal</text><text x="604.0" y="527" fill="#787c99" textLength="16.8" lengthAdjust="spacing">1d</text><text x="629.2" y="527" fill="#f7768e">×</text><text x="662.8" y="527" fill="#3b4261">│</text><text x="41.2" y="545" fill="#787c99" textLength="159.6" lengthAdjust="spacing">@alice · my-org/web</text><text x="209.2" y="545" fill="#3b4261" textLength="134.4" lengthAdjust="spacing">alice/focus-trap</text><text x="662.8" y="545" fill="#3b4261">│</text><text x="679.6" y="545" fill="#c0caf5" textLength="487.2" lengthAdjust="spacing">Webhook deliveries used to be one-shot: a timeout or a 5xx</text><text x="16.0" y="563" fill="#3b4261" textLength="604.8" lengthAdjust="spacing">┌──────────────────────────────────────────────────────────────────────┐</text><text x="662.8" y="563" fill="#3b4261">│</text><text x="679.6" y="563" fill="#c0caf5" textLength="420.0" lengthAdjust="spacing">dropped the event. This retries up to 5 times with</text><text x="16.0" y="581" fill="#3b4261">│</text><text x="32.8" y="581" fill="#c0caf5" textLength="33.6" lengthAdjust="spacing">pass</text><text x="108.4" y="581" fill="#787c99" textLength="134.4" lengthAdjust="spacing">all checks green</text><text x="612.4" y="581" fill="#3b4261">│</text><text x="662.8" y="581" fill="#3b4261">│</text><text x="679.6" y="581" fill="#c0caf5" textLength="487.2" lengthAdjust="spacing">exponential backoff and jitter, and records every attempt.</text><text x="16.0" y="599" fill="#3b4261">│</text><text x="32.8" y="599" fill="#c0caf5" textLength="33.6" lengthAdjust="spacing">fail</text><text x="108.4" y="599" fill="#787c99" textLength="117.6" lengthAdjust="spacing">a check failed</text><text x="612.4" y="599" fill="#3b4261">│</text><text x="662.8" y="599" fill="#3b4261">│</text><text x="16.0" y="617" fill="#3b4261">│</text><text x="32.8" y="617" fill="#c0caf5" textLength="58.8" lengthAdjust="spacing">pending</text><text x="108.4" y="617" fill="#787c99" textLength="168.0" lengthAdjust="spacing">checks still running</text><text x="612.4" y="617" fill="#3b4261">│</text><text x="662.8" y="617" fill="#3b4261">│</text><text x="679.6" y="617" fill="#7aa2f7" font-weight="bold" textLength="58.8" lengthAdjust="spacing">Changes</text><text x="16.0" y="635" fill="#3b4261">│</text><text x="32.8" y="635" fill="#c0caf5" textLength="33.6" lengthAdjust="spacing">none</text><text x="108.4" y="635" fill="#787c99" textLength="75.6" lengthAdjust="spacing">no checks</text><text x="612.4" y="635" fill="#3b4261">│</text><text x="662.8" y="635" fill="#3b4261">│</text><text x="16.0" y="653" fill="#3b4261">│</text><text x="32.8" y="653" fill="#ff9e64" textLength="168.0" lengthAdjust="spacing">matches 11 of 11 PRs</text><text x="326.8" y="653" fill="#787c99" textLength="285.6" lengthAdjust="spacing">tab complete · ↑↓ pick · esc close</text><text x="612.4" y="653" fill="#3b4261">│</text><text x="662.8" y="653" fill="#3b4261">│</text><text x="679.6" y="653" fill="#ff9e64">•</text><text x="696.4" y="653" fill="#bb9af7" textLength="75.6" lengthAdjust="spacing">deliver()</text><text x="780.4" y="653" fill="#c0caf5" textLength="226.8" lengthAdjust="spacing">retries on 409, 429 and 5xx</text><text x="16.0" y="671" fill="#3b4261" textLength="604.8" lengthAdjust="spacing">└──────────────────────────────────────────────────────────────────────┘</text><text x="620.8" y="671" fill="#3b4261" textLength="571.2" lengthAdjust="spacing">─────┴──────────────────────────────────────────────────────────────</text><text x="24.4" y="689" fill="#ff9e64">/</text><text x="41.2" y="689" fill="#c0caf5" textLength="25.2" lengthAdjust="spacing">ci:</text><text x="66.4" y="689" fill="#787c99">█</text></g>
</svg>
